<svg width="16" height="17" viewBox="0 0 16 17" fill="none" xmlns="http://www.w3.org/2000/svg">
<path fill-rule="evenodd" clip-rule="evenodd" d="M15.68 8.68183C15.68 8.11456 15.6291 7.56911 15.5345 7.04547H8V10.14H12.3055C12.12 11.14 11.5564 11.9873 10.7091 12.5546V14.5618H13.2945C14.8073 13.1691 15.68 11.1182 15.68 8.68183Z" fill="#4285F4"/>
<path fill-rule="evenodd" clip-rule="evenodd" d="M8.00004 16.5C10.16 16.5 11.971 15.7836 13.2946 14.5618L10.7091 12.5545C9.99277 13.0345 9.07641 13.3182 8.00004 13.3182C5.91641 13.3182 4.15277 11.9109 3.52368 10.02H0.850952V12.0927C2.16732 14.7073 4.87277 16.5 8.00004 16.5Z" fill="#34A853"/>
<path fill-rule="evenodd" clip-rule="evenodd" d="M3.52364 10.02C3.36364 9.54001 3.27273 9.02729 3.27273 8.50001C3.27273 7.97274 3.36364 7.46001 3.52364 6.98001V4.90729H0.850909C0.309091 5.98729 0 7.20911 0 8.50001C0 9.79092 0.309091 11.0127 0.850909 12.0927L3.52364 10.02Z" fill="#FBBC05"/>
<path fill-rule="evenodd" clip-rule="evenodd" d="M8.00004 3.68182C9.17459 3.68182 10.2291 4.08545 11.0582 4.87818L13.3528 2.58364C11.9673 1.29273 10.1564 0.5 8.00004 0.5C4.87277 0.5 2.16732 2.29273 0.850952 4.90727L3.52368 6.98C4.15277 5.08909 5.91641 3.68182 8.00004 3.68182Z" fill="#EA4335"/>
</svg>
